<?xml version="1.0" encoding="utf-8"?>
<svg xmlns="http://www.w3.org/2000/svg" viewBox="0 0 24 24" width="50" height="50">
  <path d="M5 3C3.9 3 3 3.9 3 5L3 19C3 20.1 3.9 21 5 21L19 21C20.1 21 21 20.1 21 19L21 5C21 3.9 20.1 3 19 3L5 3 z M 9.5371094 8L9.8847656 8C10.247766 8 10.570547 8.2321719 10.685547 8.5761719L12.789062 14.888672C12.971062 15.435672 12.564281 16 11.988281 16L11.974609 16C11.595609 16 11.262156 15.746859 11.160156 15.380859L10.878906 14.363281L8.5429688 14.363281L8.2617188 15.380859C8.1597188 15.746859 7.8272656 16 7.4472656 16C6.8712656 16 6.4645312 15.437625 6.6445312 14.890625L8.734375 8.578125C8.849375 8.232125 9.1731094 8 9.5371094 8 z M 9.7070312 10.164062L8.9160156 13.015625L10.5 13.015625L9.7070312 10.164062 z M 15.734375 10.59375C17.263375 10.59375 17.720703 12.080688 17.720703 12.929688C17.721703 12.930687 17.779125 13.685547 16.828125 13.685547L14.767578 13.685547C14.815578 14.036547 14.959266 14.317297 15.197266 14.529297C15.435266 14.740297 15.736609 14.871703 16.099609 14.845703C16.305609 14.830703 16.523563 14.774219 16.726562 14.699219C16.734562 14.696219 16.739094 14.702172 16.746094 14.701172C16.794094 14.688172 16.840578 14.671875 16.892578 14.671875C17.207578 14.671875 17.464844 14.927188 17.464844 15.242188C17.464844 15.483187 17.313563 15.687484 17.101562 15.771484C17.099563 15.773484 17.098703 15.78025 17.095703 15.78125C16.754703 15.90425 16.324906 16 16.003906 16C15.200906 16 14.547969 15.759344 14.042969 15.277344C13.538969 14.795344 13.283203 14.152609 13.283203 13.349609L13.283203 13.210938C13.283203 12.672937 13.575375 10.59375 15.734375 10.59375 z M 15.605469 11.767578C15.147469 11.767578 14.765625 12.210937 14.765625 12.710938L16.386719 12.710938C16.385719 12.245938 16.084469 11.767578 15.605469 11.767578 z" fill="#FFFFFF" />
</svg>