<?xml version="1.0" encoding="utf-8"?>
<svg xmlns="http://www.w3.org/2000/svg" viewBox="0 0 24 24" width="50" height="50">
  <path d="M5 3C3.9 3 3 3.9 3 5L3 19C3 20.1 3.9 21 5 21L19 21C20.1 21 21 20.1 21 19L21 5C21 3.9 20.1 3 19 3L5 3 z M 6.890625 8L9.5898438 8C11.915844 8 12.193359 10.140469 12.193359 10.605469C12.192359 12.465469 10.891641 13.115234 9.6816406 13.115234L8.5644531 13.115234L8.5644531 15.90625L6.890625 15.90625L6.890625 8 z M 8.5644531 9.3027344L8.5644531 11.814453L9.6816406 11.814453C10.425641 11.814453 10.611328 11.256469 10.611328 10.605469C10.612328 9.9534687 10.333641 9.3027344 9.6816406 9.3027344L8.5644531 9.3027344 z M 15.169922 9.953125C16.564922 9.953125 17.308594 10.791453 17.308594 11.814453L15.728516 11.814453C15.728516 11.349453 15.541922 11.070312 15.169922 11.070312C14.890922 11.070312 14.611328 11.256906 14.611328 11.628906C14.611328 12.558906 17.310547 12.279172 17.310547 14.326172C17.309547 15.721172 15.913922 16 15.169922 16C13.681922 16 12.9375 14.976875 12.9375 14.046875L14.425781 14.046875C14.425781 14.790875 14.983922 14.884766 15.169922 14.884766C15.541922 14.884766 15.820313 14.698172 15.820312 14.326172C15.820312 13.489172 13.121094 13.581703 13.121094 11.720703C13.121094 10.325703 14.424922 9.953125 15.169922 9.953125 z" fill="#FFFFFF" />
</svg>