<?xml version="1.0" encoding="utf-8"?>
<svg xmlns="http://www.w3.org/2000/svg" viewBox="0 0 48 48" width="144" height="144">
  <path d="M10.5 8C6.9280619 8 4 10.928062 4 14.5L4 20.5 A 1.50015 1.50015 0 1 0 7 20.5L7 19.015625L23.287109 27.820312 A 1.50015 1.50015 0 0 0 24.712891 27.820312L41 19.015625L41 33.5C41 35.450062 39.450062 37 37.5 37L26.5 37 A 1.50015 1.50015 0 1 0 26.5 40L37.5 40C41.071938 40 44 37.071938 44 33.5L44 14.5C44 10.928062 41.071938 8 37.5 8L10.5 8 z M 10.5 11L37.5 11C39.450062 11 41 12.549938 41 14.5L41 15.605469L24 24.794922L7 15.605469L7 14.5C7 12.549938 8.5499381 11 10.5 11 z M 3.5 25 A 1.50015 1.50015 0 1 0 3.5 28L10.5 28 A 1.50015 1.50015 0 1 0 10.5 25L3.5 25 z M 3.5 31 A 1.50015 1.50015 0 1 0 3.5 34L15.5 34 A 1.50015 1.50015 0 1 0 15.5 31L3.5 31 z M 3.5 37 A 1.50015 1.50015 0 1 0 3.5 40L20.5 40 A 1.50015 1.50015 0 1 0 20.5 37L3.5 37 z" fill="#0e213a" />
</svg>